{"title":"Double Indemnity-720p MP4 AAC x264 BRRip 1944-CC","uid":8144370,"size":2870779714,"categoryP":"video","categoryS":"hd___movies","magnet":"?xt=urn:btih:9373f147c79af5bf302f6efadb4c8b80f6438029&amp;dn=Double+Indemnity-720p+MP4+AAC+x264+BRRip+1944-CC&amp;tr=udp%3A%2F%2Ftracker.openbittorrent.com%3A80&amp;tr=udp%3A%2F%2Fopen.demonii.com%3A1337&amp;tr=udp%3A%2F%2Ftracker.coppersurfer.tk%3A6969&amp;tr=udp%3A%2F%2Fexodus.desync.com%3A6969","seeders":5,"leechers":4,"uploader":"Caveman44","files":-1,"time":1360875427,"description":" &lt;a href=&quot;http://www.imdb.com/title/tt0036775/&quot; rel=&quot;nofollow&quot; target=&quot;_NEW&quot;&gt;http://www.imdb.com/title/tt0036775/&lt;/a&gt;\n\nSource: Double.Indemnity.1944.720p.BluRay.X264-AMIABLE Thanks!\n\nSubs: Arabic, Croatian, Dutch, English, Italian, Polish, Servian and Swedish.\n\nSample and Screens included.\n\nGeneral\nComplete name                            : Double Indemnity-720p MP4 AAC x264 BRRip 1944-CC.mp4\nFormat                                   : MPEG-4\nFormat profile                           : Base Media\nCodec ID                                 : isom\nFile size                                : 2.64 GiB\nDuration                                 : 1h 47mn\nOverall bit rate mode                    : Variable\nOverall bit rate                         : 3 516 Kbps\nEncoded date                             : UTC 2013-02-10 07:19:03\n\nVideo\nID                                       : 1\nFormat                                   : AVC\nFormat/Info                              : Advanced Video Codec\nFormat profile                           : &lt;a class=&quot;__cf_email__&quot; href=&quot;/cdn-cgi/l/email-protection&quot; data-cfemail=&quot;c38baaa4ab838ff7edf2&quot;&gt;[email&amp;#160;protected]&lt;/a&gt;&lt;script cf-hash='f9e31' type=&quot;text/javascript&quot;&gt;\n/* &lt;![CDATA[ */!function(){try{var t=&quot;currentScript&quot;in document?document.currentScript:function(){for(var t=document.getElementsByTagName(&quot;script&quot;),e=t.length;e--;)if(t[e].getAttribute(&quot;cf-hash&quot;))return t[e]}();if(t&amp;&amp;t.previousSibling){var e,r,n,i,c=t.previousSibling,a=c.getAttribute(&quot;data-cfemail&quot;);if(a){for(e=&quot;&quot;,r=parseInt(a.substr(0,2),16),n=2;a.length-n;n+=2)i=parseInt(a.substr(n,2),16)^r,e+=String.fromCharCode(i);e=document.createTextNode(e),c.parentNode.replaceChild(e,c)}}}catch(u){}}();/* ]]&gt; */&lt;/script&gt;\nFormat settings, CABAC                   : Yes\nFormat settings, ReFrames                : 5 frames\nCodec ID                                 : avc1\nCodec ID/Info                            : Advanced Video Coding\nDuration                                 : 1h 47mn\nBit rate                                 : 3 362 Kbps\nMaximum bit rate                         : 15.0 Mbps\nWidth                                    : 944 pixels\nHeight                                   : 720 pixels\nDisplay aspect ratio                     : 4:3\nFrame rate mode                          : Variable\nFrame rate                               : 23.976 fps\nMinimum frame rate                       : 23.256 fps\nMaximum frame rate                       : 25.000 fps\nColor space                              : YUV\nChroma subsampling                       : 4:2:0\nBit depth                                : 8 bits\nScan type                                : Progressive\nBits/(Pixel*Frame)                       : 0.206\nStream size                              : 2.52 GiB (95%)\nWriting library                          : x264 core 112\n\nAudio\nID                                       : 2\nFormat                                   : AAC\nFormat/Info                              : Advanced Audio Codec\nFormat profile                           : LC\nCodec ID                                 : 40\nDuration                                 : 1h 47mn\nBit rate mode                            : Variable\nBit rate                                 : 167 Kbps\nMaximum bit rate                         : 364 Kbps\nChannel(s)                               : 2 channels\nChannel positions                        : Front: L R\nSampling rate                            : 48.0 KHz\nCompression mode                         : Lossy\nDelay relative to video                  : 83ms\nStream size                              : 129 MiB (5%)\nLanguage                                 : English\n\nEnjoy...\n\nRequested by mrmuvis \n\nComing soon: Apocalypse Hitler, Cruel Intentions, Mortal Kombat and more...","torrent":{"xt":"urn:btih:9373f147c79af5bf302f6efadb4c8b80f6438029","amp;dn":"Double+Indemnity-720p+MP4+AAC+x264+BRRip+1944-CC","amp;tr":["udp%3A%2F%2Ftracker.openbittorrent.com%3A80","udp%3A%2F%2Fopen.demonii.com%3A1337","udp%3A%2F%2Ftracker.coppersurfer.tk%3A6969","udp%3A%2F%2Fexodus.desync.com%3A6969"],"infoHash":"9373f147c79af5bf302f6efadb4c8b80f6438029","infoHashBuffer":{"type":"Buffer","data":[147,115,241,71,199,154,245,191,48,47,110,250,219,76,139,128,246,67,128,41]},"announce":[],"urlList":[]}}